<svg version="1.1" viewBox="0.0 0.0 959.4225721784777 310.9685039370079" fill="none" stroke="none" stroke-linecap="square" stroke-miterlimit="10" xmlns:xlink="http://www.w3.org/1999/xlink" xmlns="http://www.w3.org/2000/svg"><clipPath id="p.0"><path d="m0 0l959.42255 0l0 310.9685l-959.42255 0l0 -310.9685z" clip-rule="nonzero"/></clipPath><g clip-path="url(#p.0)"><path fill="#000000" fill-opacity="0.0" d="m0 0l959.42255 0l0 310.9685l-959.42255 0z" fill-rule="evenodd"/><path fill="#000000" fill-opacity="0.0" d="m18.473753 84.59843l154.58267 0l0 150.80316l-154.58267 0z" fill-rule="evenodd"/><path stroke="#000000" stroke-width="2.0" stroke-linejoin="round" stroke-linecap="butt" d="m18.473753 84.59843l154.58267 0l0 150.80316l-154.58267 0z" fill-rule="evenodd"/><path fill="#000000" fill-opacity="0.0" d="m402.70865 84.59843l154.58267 0l0 150.80316l-154.58267 0z" fill-rule="evenodd"/><path stroke="#000000" stroke-width="2.0" stroke-linejoin="round" stroke-linecap="butt" d="m402.70865 84.59843l154.58267 0l0 150.80316l-154.58267 0z" fill-rule="evenodd"/><path fill="#000000" d="m435.6373 160.81438q0 2.09375 -1.0 3.25q-0.984375 1.15625 -2.734375 1.15625q-1.765625 0 -2.765625 -1.140625q-1.0 -1.15625 -1.015625 -3.21875l0 -1.78125q0 -2.15625 0.984375 -3.359375q1.0 -1.203125 2.78125 -1.203125q1.734375 0 2.734375 1.1875q1.0 1.1875 1.015625 3.328125l0 1.78125zm-2.109375 -1.75q0 -1.40625 -0.40625 -2.09375q-0.390625 -0.6875 -1.234375 -0.6875q-0.84375 0 -1.25 0.65625q-0.390625 0.65625 -0.40625 2.015625l0 1.859375q0 1.359375 0.40625 2.015625q0.40625 0.640625 1.265625 0.640625q0.8125 0 1.203125 -0.625q0.40625 -0.640625 0.421875 -1.96875l0 -1.8125zm9.752197 -2.65625l-2.5625 0l0 8.671875l-2.125 0l0 -8.671875l-2.53125 0l0 -1.75l7.21875 0l0 1.75zm6.5985107 4.15625l-3.28125 0l0 2.765625l3.875 0l0 1.75l-5.96875 0l0 -10.421875l5.96875 0l0 1.75l-3.875 0l0 2.46875l3.28125 0l0 1.6875zm3.9108887 2.765625l3.703125 0l0 1.75l-5.796875 0l0 -10.421875l2.09375 0l0 8.671875zm15.359802 -1.71875q-0.078125 1.78125 -1.015625 2.703125q-0.921875 0.90625 -2.59375 0.90625q-1.765625 0 -2.71875 -1.15625q-0.9375 -1.171875 -0.9375 -3.328125l0 -1.75q0 -2.140625 0.96875 -3.296875q0.984375 -1.171875 2.71875 -1.171875q1.703125 0 2.578125 0.953125q0.890625 0.953125 1.015625 2.734375l-2.125 0q-0.015625 -1.109375 -0.328125 -1.515625q-0.3125 -0.421875 -1.140625 -0.421875q-0.84375 0 -1.203125 0.59375q-0.34375 0.578125 -0.375 1.9375l0 1.96875q0 1.546875 0.34375 2.125q0.359375 0.578125 1.203125 0.578125q0.828125 0 1.140625 -0.390625q0.3125 -0.40625 0.359375 -1.46875l2.109375 0zm8.624268 -0.796875q0 2.09375 -1.0 3.25q-0.984375 1.15625 -2.734375 1.15625q-1.765625 0 -2.765625 -1.140625q-1.0 -1.15625 -1.015625 -3.21875l0 -1.78125q0 -2.15625 0.984375 -3.359375q1.0 -1.203125 2.78125 -1.203125q1.734375 0 2.734375 1.1875q1.0 1.1875 1.015625 3.328125l0 1.78125zm-2.109375 -1.75q0 -1.40625 -0.40625 -2.09375q-0.390625 -0.6875 -1.234375 -0.6875q-0.84375 0 -1.25 0.65625q-0.390625 0.65625 -0.40625 2.015625l0 1.859375q0 1.359375 0.40625 2.015625q0.40625 0.640625 1.265625 0.640625q0.8125 0 1.203125 -0.625q0.40625 -0.640625 0.421875 -1.96875l0 -1.8125zm5.720276 4.265625l3.703125 0l0 1.75l-5.796875 0l0 -10.421875l2.09375 0l0 8.671875zm7.0132446 0l3.703125 0l0 1.75l-5.796875 0l0 -10.421875l2.09375 0l0 8.671875zm10.294495 -2.765625l-3.28125 0l0 2.765625l3.875 0l0 1.75l-5.96875 0l0 -10.421875l5.96875 0l0 1.75l-3.875 0l0 2.46875l3.28125 0l0 1.6875zm8.879669 1.046875q-0.078125 1.78125 -1.015625 2.703125q-0.921875 0.90625 -2.59375 0.90625q-1.765625 0 -2.71875 -1.15625q-0.9375 -1.171875 -0.9375 -3.328125l0 -1.75q0 -2.140625 0.96875 -3.296875q0.984375 -1.171875 2.71875 -1.171875q1.703125 0 2.578125 0.953125q0.890625 0.953125 1.015625 2.734375l-2.125 0q-0.015625 -1.109375 -0.328125 -1.515625q-0.3125 -0.421875 -1.140625 -0.421875q-0.84375 0 -1.203125 0.59375q-0.34375 0.578125 -0.375 1.9375l0 1.96875q0 1.546875 0.34375 2.125q0.359375 0.578125 1.203125 0.578125q0.828125 0 1.140625 -0.390625q0.3125 -0.40625 0.359375 -1.46875l2.109375 0zm7.822815 -5.203125l-2.5625 0l0 8.671875l-2.125 0l0 -8.671875l-2.53125 0l0 -1.75l7.21875 0l0 1.75zm8.351135 4.40625q0 2.09375 -1.0 3.25q-0.984375 1.15625 -2.734375 1.15625q-1.765625 0 -2.765625 -1.140625q-1.0 -1.15625 -1.015625 -3.21875l0 -1.78125q0 -2.15625 0.984375 -3.359375q1.0 -1.203125 2.78125 -1.203125q1.734375 0 2.734375 1.1875q1.0 1.1875 1.015625 3.328125l0 1.78125zm-2.109375 -1.75q0 -1.40625 -0.40625 -2.09375q-0.390625 -0.6875 -1.234375 -0.6875q-0.84375 0 -1.25 0.65625q-0.390625 0.65625 -0.40625 2.015625l0 1.859375q0 1.359375 0.40625 2.015625q0.40625 0.640625 1.265625 0.640625q0.8125 0 1.203125 -0.625q0.40625 -0.640625 0.421875 -1.96875l0 -1.8125zm6.782776 2.203125l-1.046875 0l0 3.8125l-2.109375 0l0 -10.421875l3.359375 0q1.578125 0 2.4375 0.828125q0.859375 0.8125 0.859375 2.328125q0 2.0625 -1.5 2.90625l1.828125 4.265625l0 0.09375l-2.265625 0l-1.5625 -3.8125zm-1.046875 -1.75l1.1875 0q0.625 0 0.9375 -0.40625q0.328125 -0.421875 0.328125 -1.125q0 -1.578125 -1.234375 -1.578125l-1.21875 0l0 3.109375z" fill-rule="nonzero"/><path fill="#000000" fill-opacity="0.0" d="m786.9449 76.59843l154.5827 0l0 169.51181l-154.5827 0z" fill-rule="evenodd"/><path stroke="#000000" stroke-width="2.0" stroke-linejoin="round" stroke-linecap="butt" d="m786.9449 76.59843l154.5827 0l0 169.51181l-154.5827 0z" fill-rule="evenodd"/><path fill="#000000" fill-opacity="0.0" d="m22.89239 95.29396l0 131.77953l58.519684 0l0 -131.77953z" fill-rule="evenodd"/><path stroke="#000000" stroke-width="2.0" stroke-linejoin="round" stroke-linecap="butt" d="m22.89239 95.29396l0 131.77953l58.519684 0l0 -131.77953z" fill-rule="evenodd"/><path fill="#000000" d="m43.98223 174.41246l0 3.28125l4.25 0l0 2.09375l-10.421875 0l0 -5.765625l1.75 0l0 3.671875l2.671875 0l0 -3.28125l1.75 0zm2.5 -3.6890564l0 -3.703125l1.75 0l0 5.796875l-10.421875 0l0 -2.09375l8.671875 0zm-0.375 -10.024307l0 2.875l2.125 0.546875l0 2.234375l-10.421875 -3.25l0 -1.9375l10.421875 -3.265625l0 2.234375l-2.125 0.5625zm-1.765625 2.40625l0 -1.9375l-3.703125 0.96875l3.703125 0.96875zm1.15625 -10.580368q-0.640625 0 -0.953125 0.328125q-0.328125 0.3125 -0.6875 1.171875q-0.59375 1.578125 -1.390625 2.265625q-0.796875 0.6875 -1.890625 0.6875q-1.3125 0 -2.109375 -0.9375q-0.796875 -0.9375 -0.796875 -2.375q0 -0.953125 0.40625 -1.703125q0.40625 -0.765625 1.140625 -1.15625q0.734375 -0.40625 1.671875 -0.40625l0 2.09375q-0.734375 0 -1.109375 0.3125q-0.390625 0.3125 -0.390625 0.890625q0 0.5625 0.328125 0.875q0.328125 0.296875 0.875 0.296875q0.4375 0 0.78125 -0.34375q0.34375 -0.34375 0.71875 -1.21875q0.546875 -1.515625 1.359375 -2.203125q0.796875 -0.703125 2.03125 -0.703125q1.359375 0 2.125 0.875q0.765625 0.859375 0.765625 2.34375q0 1.015625 -0.40625 1.84375q-0.421875 0.828125 -1.1875 1.296875q-0.78125 0.46875 -1.828125 0.46875l0 -2.109375q0.890625 0 1.3125 -0.34375q0.40625 -0.359375 0.40625 -1.15625q0 -1.09375 -1.171875 -1.09375zm-1.28125 -6.4461975l1.03125 0.828125l2.984375 0l0 2.09375l-10.421875 0l0 -2.09375l4.546875 0l-1.125 -0.671875l-3.421875 -1.9375l0 -2.578125l4.578125 2.984375l5.84375 -3.03125l0 2.5l-4.015625 1.90625z" fill-rule="nonzero"/><path fill="#000000" d="m64.10723 196.57016l0 2.875l2.125 0.546875l0 2.234375l-10.421875 -3.25l0 -1.9375l10.421875 -3.265625l0 2.234375l-2.125 0.5625zm-1.765625 2.40625l0 -1.9375l-3.703125 0.96875l3.703125 0.96875zm0.21875 -8.283493l3.671875 0l0 2.09375l-10.421875 0l0 -3.546875q0 -1.546875 0.96875 -2.453125q0.953125 -0.921875 2.484375 -0.921875q1.53125 0 2.421875 0.90625q0.875 0.90625 0.875 2.515625l0 1.40625zm-1.75 0l0 -1.453125q0 -0.59375 -0.390625 -0.921875q-0.390625 -0.328125 -1.140625 -0.328125q-0.78125 0 -1.234375 0.34375q-0.46875 0.328125 -0.484375 0.890625l0 1.46875l3.25 0zm1.75 -8.337173l3.671875 0l0 2.09375l-10.421875 0l0 -3.546875q0 -1.546875 0.96875 -2.453125q0.953125 -0.921875 2.484375 -0.921875q1.53125 0 2.421875 0.90625q0.875 0.90625 0.875 2.515625l0 1.40625zm-1.75 0l0 -1.453125q0 -0.59375 -0.390625 -0.921875q-0.390625 -0.328125 -1.140625 -0.328125q-0.78125 0 -1.234375 0.34375q-0.46875 0.328125 -0.484375 0.890625l0 1.46875l3.25 0zm3.671875 -8.337173l0 -3.703125l1.75 0l0 5.796875l-10.421875 0l0 -2.09375l8.671875 0zm1.75 -7.1069946l0 2.09375l-10.421875 0l0 -2.09375l10.421875 0zm-3.46875 -8.83963q1.78125 0.078125 2.703125 1.015625q0.90625 0.921875 0.90625 2.59375q0 1.765625 -1.15625 2.71875q-1.171875 0.9375 -3.328125 0.9375l-1.75 0q-2.140625 0 -3.296875 -0.96875q-1.171875 -0.984375 -1.171875 -2.71875q0 -1.703125 0.953125 -2.578125q0.953125 -0.890625 2.734375 -1.015625l0 2.125q-1.109375 0.015625 -1.515625 0.328125q-0.421875 0.3125 -0.421875 1.140625q0 0.84375 0.59375 1.203125q0.578125 0.34375 1.9375 0.375l1.96875 0q1.546875 0 2.125 -0.34375q0.578125 -0.359375 0.578125 -1.203125q0 -0.828125 -0.390625 -1.140625q-0.40625 -0.3125 -1.46875 -0.359375l0 -2.109375zm1.34375 -6.2648926l0 2.875l2.125 0.546875l0 2.234375l-10.421875 -3.25l0 -1.9375l10.421875 -3.265625l0 2.234375l-2.125 0.5625zm-1.765625 2.40625l0 -1.9375l-3.703125 0.96875l3.703125 0.96875zm-4.78125 -12.064743l0 2.5625l8.671875 0l0 2.125l-8.671875 0l0 2.53125l-1.75 0l0 -7.21875l1.75 0zm8.671875 -3.4110107l0 2.09375l-10.421875 0l0 -2.09375l10.421875 0zm-4.265625 -9.105255q2.09375 0 3.25 1.0q1.15625 0.984375 1.15625 2.734375q0 1.765625 -1.140625 2.765625q-1.15625 1.0 -3.21875 1.015625l-1.78125 0q-2.15625 0 -3.359375 -0.984375q-1.203125 -1.0 -1.203125 -2.78125q0 -1.734375 1.1875 -2.734375q1.1875 -1.0 3.328125 -1.015625l1.78125 0zm-1.75 2.109375q-1.40625 0 -2.09375 0.40625q-0.6875 0.390625 -0.6875 1.234375q0 0.84375 0.65625 1.25q0.65625 0.390625 2.015625 0.40625l1.859375 0q1.359375 0 2.015625 -0.40625q0.640625 -0.40625 0.640625 -1.265625q0 -0.8125 -0.625 -1.203125q-0.640625 -0.40625 -1.96875 -0.421875l-1.8125 0zm6.015625 -10.907776l0 2.109375l-6.828125 3.078125l6.828125 0l0 2.09375l-10.421875 0l0 -2.09375l6.84375 -3.09375l-6.84375 0l0 -2.09375l10.421875 0z" fill-rule="nonzero"/><path fill="#000000" fill-opacity="0.0" d="m70.71144 136.18898l97.291336 0l0 47.62204l-97.291336 0z" fill-rule="evenodd"/><path stroke="#000000" stroke-width="2.0" stroke-linejoin="round" stroke-linecap="butt" d="m70.71144 136.18898l97.291336 0l0 47.62204l-97.291336 0z" fill-rule="evenodd"/><path fill="#000000" d="m112.32906 151.81438q0 2.09375 -1.0 3.25q-0.984375 1.15625 -2.734375 1.15625q-1.765625 0 -2.765625 -1.140625q-1.0 -1.15625 -1.015625 -3.21875l0 -1.78125q0 -2.15625 0.984375 -3.359375q1.0 -1.203125 2.78125 -1.203125q1.734375 0 2.734375 1.1875q1.0 1.1875 1.015625 3.328125l0 1.78125zm-2.109375 -1.75q0 -1.40625 -0.40625 -2.09375q-0.390625 -0.6875 -1.234375 -0.6875q-0.84375 0 -1.25 0.65625q-0.390625 0.65625 -0.40625 2.015625l0 1.859375q0 1.359375 0.40625 2.015625q0.40625 0.640625 1.265625 0.640625q0.8125 0 1.203125 -0.625q0.40625 -0.640625 0.421875 -1.96875l0 -1.8125zm9.752182 -2.65625l-2.5625 0l0 8.671875l-2.125 0l0 -8.671875l-2.53125 0l0 -1.75l7.21875 0l0 1.75zm6.5985107 4.15625l-3.28125 0l0 2.765625l3.875 0l0 1.75l-5.96875 0l0 -10.421875l5.96875 0l0 1.75l-3.875 0l0 2.46875l3.28125 0l0 1.6875zm3.9108963 2.765625l3.703125 0l0 1.75l-5.796875 0l0 -10.421875l2.09375 0l0 8.671875z" fill-rule="nonzero"/><path fill="#000000" d="m100.065056 171.955l-2.875 0l-0.546875 2.125l-2.234375 0l3.25 -10.421875l1.9375 0l3.265625 10.421875l-2.234375 0l-0.5625 -2.125zm-2.40625 -1.765625l1.9375 0l-0.96875 -3.703125l-0.96875 3.703125zm8.283493 0.21875l0 3.671875l-2.09375 0l0 -10.421875l3.546875 0q1.546875 0 2.453125 0.96875q0.921875 0.953125 0.921875 2.484375q0 1.53125 -0.90625 2.421875q-0.90625 0.875 -2.515625 0.875l-1.40625 0zm0 -1.75l1.453125 0q0.59375 0 0.921875 -0.390625q0.328125 -0.390625 0.328125 -1.140625q0 -0.78125 -0.34375 -1.234375q-0.328125 -0.46875 -0.890625 -0.484375l-1.46875 0l0 3.25zm8.430923 5.421875l-2.09375 0l0 -10.421875l2.09375 0l0 10.421875zm2.4021301 0.890625l-1.46875 0l3.125 -11.3125l1.46875 0l-3.125 11.3125zm8.617645 -3.625q0 -0.640625 -0.328125 -0.953125q-0.3125 -0.328125 -1.171875 -0.6875q-1.578125 -0.59375 -2.265625 -1.390625q-0.6875 -0.796875 -0.6875 -1.890625q0 -1.3125 0.9375 -2.109375q0.9375 -0.796875 2.375 -0.796875q0.953125 0 1.703125 0.40625q0.765625 0.40625 1.15625 1.140625q0.40625 0.734375 0.40625 1.671875l-2.09375 0q0 -0.734375 -0.3125 -1.109375q-0.3125 -0.390625 -0.890625 -0.390625q-0.5625 0 -0.875 0.328125q-0.296875 0.328125 -0.296875 0.875q0 0.4375 0.34375 0.78125q0.34375 0.34375 1.21875 0.71875q1.515625 0.546875 2.203125 1.359375q0.703125 0.796875 0.703125 2.03125q0 1.359375 -0.875 2.125q-0.859375 0.765625 -2.34375 0.765625q-1.015625 0 -1.84375 -0.40625q-0.828125 -0.421875 -1.296875 -1.1875q-0.46875 -0.78125 -0.46875 -1.828125l2.109375 0q0 0.890625 0.34375 1.3125q0.359375 0.40625 1.15625 0.40625q1.09375 0 1.09375 -1.171875zm3.5243149 2.734375l0 -10.421875l2.75 0q1.828125 0 2.90625 1.171875q1.078125 1.15625 1.109375 3.171875l0 1.6875q0 2.046875 -1.09375 3.21875q-1.078125 1.171875 -2.984375 1.171875l-2.6875 0zm2.09375 -8.671875l0 6.921875l0.640625 0q1.046875 0 1.46875 -0.546875q0.4375 -0.5625 0.453125 -1.921875l0 -1.8125q0 -1.453125 -0.40625 -2.03125q-0.40625 -0.578125 -1.390625 -0.609375l-0.765625 0zm9.1080475 4.65625l-0.828125 1.03125l0 2.984375l-2.09375 0l0 -10.421875l2.09375 0l0 4.546875l0.671875 -1.125l1.9375 -3.421875l2.578125 0l-2.984375 4.578125l3.03125 5.84375l-2.5 0l-1.90625 -4.015625z" fill-rule="nonzero"/><path fill="#000000" fill-opacity="0.0" d="m771.7638 39.43307l188.25195 0l0 37.165356l-188.25195 0z" fill-rule="evenodd"/><path fill="#000000" d="m803.83344 57.997444l-3.28125 0l0 2.765625l3.875 0l0 1.75l-5.96875 0l0 -10.421875l5.96875 0l0 1.75l-3.875 0l0 2.46875l3.28125 0l0 1.6875zm3.9108887 2.765625l3.703125 0l0 1.75l-5.796875 0l0 -10.421875l2.09375 0l0 8.671875zm10.024353 -0.375l-2.875 0l-0.546875 2.125l-2.234375 0l3.25 -10.421875l1.9375 0l3.265625 10.421875l-2.234375 0l-0.5625 -2.125zm-2.40625 -1.765625l1.9375 0l-0.96875 -3.703125l-0.96875 3.703125zm10.580322 1.15625q0 -0.640625 -0.328125 -0.953125q-0.3125 -0.328125 -1.171875 -0.6875q-1.578125 -0.59375 -2.265625 -1.390625q-0.6875 -0.796875 -0.6875 -1.890625q0 -1.3125 0.9375 -2.109375q0.9375 -0.796875 2.375 -0.796875q0.953125 0 1.703125 0.40625q0.765625 0.40625 1.15625 1.140625q0.40625 0.734375 0.40625 1.671875l-2.09375 0q0 -0.734375 -0.3125 -1.109375q-0.3125 -0.390625 -0.890625 -0.390625q-0.5625 0 -0.875 0.328125q-0.296875 0.328125 -0.296875 0.875q0 0.4375 0.34375 0.78125q0.34375 0.34375 1.21875 0.71875q1.515625 0.546875 2.203125 1.359375q0.703125 0.796875 0.703125 2.03125q0 1.359375 -0.875 2.125q-0.859375 0.765625 -2.34375 0.765625q-1.015625 0 -1.84375 -0.40625q-0.828125 -0.421875 -1.296875 -1.1875q-0.46875 -0.78125 -0.46875 -1.828125l2.109375 0q0 0.890625 0.34375 1.3125q0.359375 0.40625 1.15625 0.40625q1.09375 0 1.09375 -1.171875zm10.258728 -5.9375l-2.5625 0l0 8.671875l-2.125 0l0 -8.671875l-2.53125 0l0 -1.75l7.21875 0l0 1.75zm3.4110107 8.671875l-2.09375 0l0 -10.421875l2.09375 0l0 10.421875zm8.8396 -3.46875q-0.078125 1.78125 -1.015625 2.703125q-0.921875 0.90625 -2.59375 0.90625q-1.765625 0 -2.71875 -1.15625q-0.9375 -1.171875 -0.9375 -3.328125l0 -1.75q0 -2.140625 0.96875 -3.296875q0.984375 -1.171875 2.71875 -1.171875q1.703125 0 2.578125 0.953125q0.890625 0.953125 1.015625 2.734375l-2.125 0q-0.015625 -1.109375 -0.328125 -1.515625q-0.3125 -0.421875 -1.140625 -0.421875q-0.84375 0 -1.203125 0.59375q-0.34375 0.578125 -0.375 1.9375l0 1.96875q0 1.546875 0.34375 2.125q0.359375 0.578125 1.203125 0.578125q0.828125 0 1.140625 -0.390625q0.3125 -0.40625 0.359375 -1.46875l2.109375 0zm4.67395 3.46875l0 -10.421875l2.75 0q1.828125 0 2.90625 1.171875q1.078125 1.15625 1.109375 3.171875l0 1.6875q0 2.046875 -1.09375 3.21875q-1.078125 1.171875 -2.984375 1.171875l-2.6875 0zm2.09375 -8.671875l0 6.921875l0.640625 0q1.046875 0 1.46875 -0.546875q0.4375 -0.5625 0.453125 -1.921875l0 -1.8125q0 -1.453125 -0.40625 -2.03125q-0.40625 -0.578125 -1.390625 -0.609375l-0.765625 0zm11.561218 4.15625l-3.28125 0l0 2.765625l3.875 0l0 1.75l-5.96875 0l0 -10.421875l5.96875 0l0 1.75l-3.875 0l0 2.46875l3.28125 0l0 1.6875zm3.9108887 0.84375l0 3.671875l-2.09375 0l0 -10.421875l3.546875 0q1.546875 0 2.453125 0.96875q0.921875 0.953125 0.921875 2.484375q0 1.53125 -0.90625 2.421875q-0.90625 0.875 -2.515625 0.875l-1.40625 0zm0 -1.75l1.453125 0q0.59375 0 0.921875 -0.390625q0.328125 -0.390625 0.328125 -1.140625q0 -0.78125 -0.34375 -1.234375q-0.328125 -0.46875 -0.890625 -0.484375l-1.46875 0l0 3.25zm8.337158 3.671875l3.703125 0l0 1.75l-5.796875 0l0 -10.421875l2.09375 0l0 8.671875zm11.789307 -2.515625q0 2.09375 -1.0 3.25q-0.984375 1.15625 -2.734375 1.15625q-1.765625 0 -2.765625 -1.140625q-1.0 -1.15625 -1.015625 -3.21875l0 -1.78125q0 -2.15625 0.984375 -3.359375q1.0 -1.203125 2.78125 -1.203125q1.734375 0 2.734375 1.1875q1.0 1.1875 1.015625 3.328125l0 1.78125zm-2.109375 -1.75q0 -1.40625 -0.40625 -2.09375q-0.390625 -0.6875 -1.234375 -0.6875q-0.84375 0 -1.25 0.65625q-0.390625 0.65625 -0.40625 2.015625l0 1.859375q0 1.359375 0.40625 2.015625q0.40625 0.640625 1.265625 0.640625q0.8125 0 1.203125 -0.625q0.40625 -0.640625 0.421875 -1.96875l0 -1.8125zm6.4592285 0.28125l1.5625 -4.6875l2.296875 0l-2.796875 6.640625l0 3.78125l-2.140625 0l0 -3.78125l-2.796875 -6.640625l2.296875 0l1.578125 4.6875zm7.5444336 -4.6875l1.96875 7.53125l1.96875 -7.53125l2.75 0l0 10.421875l-2.109375 0l0 -2.8125l0.1875 -4.34375l-2.078125 7.15625l-1.4375 0l-2.078125 -7.15625l0.1875 4.34375l0 2.8125l-2.09375 0l0 -10.421875l2.734375 0zm13.754517 5.90625l-3.28125 0l0 2.765625l3.875 0l0 1.75l-5.96875 0l0 -10.421875l5.96875 0l0 1.75l-3.875 0l0 2.46875l3.28125 0l0 1.6875zm9.098389 4.515625l-2.109375 0l-3.078125 -6.828125l0 6.828125l-2.09375 0l0 -10.421875l2.09375 0l3.09375 6.84375l0 -6.84375l2.09375 0l0 10.421875zm8.219543 -8.671875l-2.5625 0l0 8.671875l-2.125 0l0 -8.671875l-2.53125 0l0 -1.75l7.21875 0l0 1.75z" fill-rule="nonzero"/><path fill="#000000" fill-opacity="0.0" d="m801.76843 84.59843l126.86615 0l0 43.590553l-126.86615 0z" fill-rule="evenodd"/><path stroke="#000000" stroke-width="2.0" stroke-linejoin="round" stroke-linecap="butt" d="m801.76843 84.59843l126.86615 0l0 43.590553l-126.86615 0z" fill-rule="evenodd"/><path fill="#000000" d="m845.7864 106.67683l-1.015625 1.234375l0 3.5625l-1.3125 0l0 -10.421875l1.3125 0l0 5.03125l0.859375 -1.140625l2.796875 -3.890625l1.578125 0l-3.390625 4.59375l3.65625 5.828125l-1.5625 0l-2.921875 -4.796875zm7.017761 4.796875l-1.296875 0l0 -10.421875l1.296875 0l0 10.421875zm2.3046875 0l0 -10.421875l2.96875 0q1.421875 0 2.140625 0.703125q0.71875 0.6875 0.71875 2.078125q0 0.734375 -0.375 1.296875q-0.359375 0.546875 -0.96875 0.859375q0.703125 0.203125 1.125 0.875q0.421875 0.671875 0.421875 1.609375q0 1.390625 -0.765625 2.203125q-0.765625 0.796875 -2.203125 0.796875l-3.0625 0zm1.3125 -4.875l0 3.75l1.78125 0q0.75 0 1.1875 -0.484375q0.4375 -0.5 0.4375 -1.375q0 -1.890625 -1.59375 -1.890625l-1.8125 0zm0 -1.09375l1.671875 0q0.6875 0 1.09375 -0.453125q0.421875 -0.46875 0.421875 -1.234375q0 -0.859375 -0.375 -1.234375q-0.375 -0.390625 -1.15625 -0.390625l-1.65625 0l0 3.3125zm11.540527 3.25l-3.515625 0l-0.8125 2.71875l-1.34375 0l3.359375 -10.421875l1.109375 0l3.375 10.421875l-1.34375 0l-0.828125 -2.71875zm-3.171875 -1.125l2.828125 0l-1.421875 -4.75l-1.40625 4.75zm13.553894 3.84375l-1.3125 0l-4.171875 -8.03125l0 8.03125l-1.3125 0l0 -10.421875l1.3125 0l4.1875 8.0625l0 -8.0625l1.296875 0l0 10.421875zm7.265686 -2.71875l-3.515625 0l-0.8125 2.71875l-1.34375 0l3.359375 -10.421875l1.109375 0l3.375 10.421875l-1.34375 0l-0.828125 -2.71875zm-3.171875 -1.125l2.828125 0l-1.421875 -4.75l-1.40625 4.75z" fill-rule="nonzero"/><path fill="#000000" fill-opacity="0.0" d="m803.88605 137.3043l126.86615 0l0 43.590546l-126.86615 0z" fill-rule="evenodd"/><path stroke="#000000" stroke-width="2.0" stroke-linejoin="round" stroke-linecap="butt" d="m803.88605 137.3043l126.86615 0l0 43.590546l-126.86615 0z" fill-rule="evenodd"/><path fill="#000000" d="m834.91675 161.46083l-3.515625 0l-0.8125 2.71875l-1.34375 0l3.359375 -10.421875l1.109375 0l3.375 10.421875l-1.34375 0l-0.828125 -2.71875zm-3.171875 -1.125l2.828125 0l-1.421875 -4.75l-1.40625 4.75zm8.069519 -0.234375l0 4.078125l-1.3125 0l0 -10.421875l3.3125 0q1.453125 0 2.28125 0.875q0.84375 0.859375 0.84375 2.3125q0 1.5 -0.796875 2.3125q-0.796875 0.8125 -2.234375 0.84375l-2.09375 0zm0 -1.125l2.0 0q0.875 0 1.34375 -0.515625q0.46875 -0.53125 0.46875 -1.5q0 -0.9375 -0.484375 -1.5q-0.484375 -0.5625 -1.3125 -0.5625l-2.015625 0l0 4.078125zm8.497498 -5.21875l2.71875 8.5l2.71875 -8.5l1.6875 0l0 10.421875l-1.3125 0l0 -4.0625l0.125 -4.0625l-2.71875 8.125l-1.0 0l-2.71875 -8.09375l0.125 4.03125l0 4.0625l-1.3125 0l0 -10.421875l1.6875 0zm17.286621 7.78125q0 -0.765625 -0.421875 -1.1875q-0.421875 -0.421875 -1.53125 -0.8125q-1.09375 -0.390625 -1.6875 -0.8125q-0.578125 -0.4375 -0.875 -0.984375q-0.28125 -0.5625 -0.28125 -1.28125q0 -1.234375 0.828125 -2.03125q0.828125 -0.8125 2.171875 -0.8125q0.90625 0 1.625 0.421875q0.71875 0.40625 1.09375 1.140625q0.390625 0.71875 0.390625 1.59375l-1.3125 0q0 -0.96875 -0.46875 -1.5q-0.453125 -0.53125 -1.328125 -0.53125q-0.796875 0 -1.234375 0.453125q-0.4375 0.4375 -0.4375 1.234375q0 0.671875 0.46875 1.109375q0.484375 0.4375 1.46875 0.796875q1.53125 0.5 2.1875 1.25q0.671875 0.75 0.671875 1.953125q0 1.265625 -0.828125 2.03125q-0.8125 0.75 -2.234375 0.75q-0.90625 0 -1.6875 -0.390625q-0.765625 -0.40625 -1.203125 -1.125q-0.4375 -0.71875 -0.4375 -1.640625l1.3125 0q0 0.96875 0.53125 1.5q0.546875 0.53125 1.484375 0.53125q0.859375 0 1.296875 -0.4375q0.4375 -0.453125 0.4375 -1.21875zm8.0460205 -2.171875l-3.6875 0l0 3.6875l4.296875 0l0 1.125l-5.609375 0l0 -10.421875l5.53125 0l0 1.140625l-4.21875 0l0 3.34375l3.6875 0l0 1.125zm5.418701 0.59375l-1.828125 0l0 4.21875l-1.3125 0l0 -10.421875l2.921875 0q1.53125 0 2.3125 0.796875q0.796875 0.796875 0.796875 2.34375q0 0.96875 -0.4375 1.6875q-0.421875 0.71875 -1.203125 1.078125l2.015625 4.4375l0 0.078125l-1.40625 0l-1.859375 -4.21875zm-1.828125 -1.125l1.59375 0q0.828125 0 1.3125 -0.515625q0.484375 -0.53125 0.484375 -1.421875q0 -2.0 -1.8125 -2.0l-1.578125 0l0 3.9375zm9.299133 3.328125l2.390625 -8.40625l1.4375 0l-3.234375 10.421875l-1.15625 0l-3.234375 -10.421875l1.4375 0l2.359375 8.40625zm10.239624 -2.796875l-3.6875 0l0 3.6875l4.296875 0l0 1.125l-5.609375 0l0 -10.421875l5.53125 0l0 1.140625l-4.21875 0l0 3.34375l3.6875 0l0 1.125zm5.41864 0.59375l-1.828125 0l0 4.21875l-1.3125 0l0 -10.421875l2.921875 0q1.53125 0 2.3125 0.796875q0.796875 0.796875 0.796875 2.34375q0 0.96875 -0.4375 1.6875q-0.421875 0.71875 -1.203125 1.078125l2.015625 4.4375l0 0.078125l-1.40625 0l-1.859375 -4.21875zm-1.828125 -1.125l1.59375 0q0.828125 0 1.3125 -0.515625q0.484375 -0.53125 0.484375 -1.421875q0 -2.0 -1.8125 -2.0l-1.578125 0l0 3.9375z" fill-rule="nonzero"/><path fill="#000000" fill-opacity="0.0" d="m803.88605 190.95137l126.86615 0l0 43.590546l-126.86615 0z" fill-rule="evenodd"/><path stroke="#000000" stroke-width="2.0" stroke-linejoin="round" stroke-linecap="butt" d="m803.88605 190.95137l126.86615 0l0 43.590546l-126.86615 0z" fill-rule="evenodd"/><path fill="#000000" d="m824.19037 213.01414l-3.6875 0l0 3.6875l4.296875 0l0 1.125l-5.609375 0l0 -10.421875l5.53125 0l0 1.140625l-4.21875 0l0 3.34375l3.6875 0l0 1.125zm3.5905151 3.6875l4.09375 0l0 1.125l-5.40625 0l0 -10.421875l1.3125 0l0 9.296875zm10.646057 -1.59375l-3.515625 0l-0.8125 2.71875l-1.34375 0l3.359375 -10.421875l1.109375 0l3.375 10.421875l-1.34375 0l-0.828125 -2.71875zm-3.171875 -1.125l2.828125 0l-1.421875 -4.75l-1.40625 4.75zm11.303894 1.203125q0 -0.765625 -0.421875 -1.1875q-0.421875 -0.421875 -1.53125 -0.8125q-1.09375 -0.390625 -1.6875 -0.8125q-0.578125 -0.4375 -0.875 -0.984375q-0.28125 -0.5625 -0.28125 -1.28125q0 -1.234375 0.828125 -2.03125q0.828125 -0.8125 2.171875 -0.8125q0.90625 0 1.625 0.421875q0.71875 0.40625 1.09375 1.140625q0.390625 0.71875 0.390625 1.59375l-1.3125 0q0 -0.96875 -0.46875 -1.5q-0.453125 -0.53125 -1.328125 -0.53125q-0.796875 0 -1.234375 0.453125q-0.4375 0.4375 -0.4375 1.234375q0 0.671875 0.46875 1.109375q0.484375 0.4375 1.46875 0.796875q1.53125 0.5 2.1875 1.25q0.671875 0.75 0.671875 1.953125q0 1.265625 -0.828125 2.03125q-0.8125 0.75 -2.234375 0.75q-0.90625 0 -1.6875 -0.390625q-0.765625 -0.40625 -1.203125 -1.125q-0.4375 -0.71875 -0.4375 -1.640625l1.3125 0q0 0.96875 0.53125 1.5q0.546875 0.53125 1.484375 0.53125q0.859375 0 1.296875 -0.4375q0.4375 -0.453125 0.4375 -1.21875zm9.139832 -6.640625l-2.75 0l0 9.28125l-1.3125 0l0 -9.28125l-2.734375 0l0 -1.140625l6.796875 0l0 1.140625zm2.894287 9.28125l-1.296875 0l0 -10.421875l1.296875 0l0 10.421875zm8.8359375 -3.3125q-0.078125 1.6875 -0.9375 2.578125q-0.859375 0.875 -2.421875 0.875q-1.5625 0 -2.484375 -1.1875q-0.921875 -1.1875 -0.921875 -3.234375l0 -1.890625q0 -2.03125 0.9375 -3.203125q0.953125 -1.1875 2.59375 -1.1875q1.515625 0 2.328125 0.90625q0.828125 0.90625 0.90625 2.578125l-1.328125 0q-0.078125 -1.265625 -0.53125 -1.8125q-0.453125 -0.546875 -1.375 -0.546875q-1.0625 0 -1.640625 0.84375q-0.5625 0.828125 -0.5625 2.4375l0 1.90625q0 1.59375 0.53125 2.4375q0.53125 0.84375 1.546875 0.84375q1.03125 0 1.46875 -0.5q0.453125 -0.515625 0.5625 -1.84375l1.328125 0zm6.3241577 0.671875q0 -0.765625 -0.421875 -1.1875q-0.421875 -0.421875 -1.53125 -0.8125q-1.09375 -0.390625 -1.6875 -0.8125q-0.578125 -0.4375 -0.875 -0.984375q-0.28125 -0.5625 -0.28125 -1.28125q0 -1.234375 0.828125 -2.03125q0.828125 -0.8125 2.171875 -0.8125q0.90625 0 1.625 0.421875q0.71875 0.40625 1.09375 1.140625q0.390625 0.71875 0.390625 1.59375l-1.3125 0q0 -0.96875 -0.46875 -1.5q-0.453125 -0.53125 -1.328125 -0.53125q-0.796875 0 -1.234375 0.453125q-0.4375 0.4375 -0.4375 1.234375q0 0.671875 0.46875 1.109375q0.484375 0.4375 1.46875 0.796875q1.53125 0.5 2.1875 1.25q0.671875 0.75 0.671875 1.953125q0 1.265625 -0.828125 2.03125q-0.8125 0.75 -2.234375 0.75q-0.90625 0 -1.6875 -0.390625q-0.765625 -0.40625 -1.203125 -1.125q-0.4375 -0.71875 -0.4375 -1.640625l1.3125 0q0 0.96875 0.53125 1.5q0.546875 0.53125 1.484375 0.53125q0.859375 0 1.296875 -0.4375q0.4375 -0.453125 0.4375 -1.21875zm8.046082 -2.171875l-3.6875 0l0 3.6875l4.296875 0l0 1.125l-5.609375 0l0 -10.421875l5.53125 0l0 1.140625l-4.21875 0l0 3.34375l3.6875 0l0 1.125zm7.13739 2.09375l-3.515625 0l-0.8125 2.71875l-1.34375 0l3.359375 -10.421875l1.109375 0l3.375 10.421875l-1.34375 0l-0.828125 -2.71875zm-3.171875 -1.125l2.828125 0l-1.421875 -4.75l-1.40625 4.75zm9.897644 -0.375l-1.828125 0l0 4.21875l-1.3125 0l0 -10.421875l2.921875 0q1.53125 0 2.3125 0.796875q0.796875 0.796875 0.796875 2.34375q0 0.96875 -0.4375 1.6875q-0.421875 0.71875 -1.203125 1.078125l2.015625 4.4375l0 0.078125l-1.40625 0l-1.859375 -4.21875zm-1.828125 -1.125l1.59375 0q0.828125 0 1.3125 -0.515625q0.484375 -0.53125 0.484375 -1.421875q0 -2.0 -1.8125 -2.0l-1.578125 0l0 3.9375zm12.997742 2.03125q-0.078125 1.6875 -0.9375 2.578125q-0.859375 0.875 -2.421875 0.875q-1.5625 0 -2.484375 -1.1875q-0.921875 -1.1875 -0.921875 -3.234375l0 -1.890625q0 -2.03125 0.9375 -3.203125q0.953125 -1.1875 2.59375 -1.1875q1.515625 0 2.328125 0.90625q0.828125 0.90625 0.90625 2.578125l-1.328125 0q-0.078125 -1.265625 -0.53125 -1.8125q-0.453125 -0.546875 -1.375 -0.546875q-1.0625 0 -1.640625 0.84375q-0.5625 0.828125 -0.5625 2.4375l0 1.90625q0 1.59375 0.53125 2.4375q0.53125 0.84375 1.546875 0.84375q1.03125 0 1.46875 -0.5q0.453125 -0.515625 0.5625 -1.84375l1.328125 0zm8.589783 3.3125l-1.3125 0l0 -4.8125l-4.1875 0l0 4.8125l-1.3125 0l0 -10.421875l1.3125 0l0 4.484375l4.1875 0l0 -4.484375l1.3125 0l0 10.421875z" fill-rule="nonzero"/><path fill="#000000" fill-opacity="0.0" d="m168.00278 160.0l234.70865 0" fill-rule="evenodd"/><path stroke="#000000" stroke-width="3.0" stroke-linejoin="round" stroke-linecap="butt" stroke-dasharray="12.0,9.0" d="m168.00278 160.0l216.70868 0" fill-rule="evenodd"/><path fill="#000000" stroke="#000000" stroke-width="3.0" stroke-linecap="butt" d="m384.71146 164.9552l13.614288 -4.9552l-13.614288 -4.9552z" fill-rule="evenodd"/><path fill="#000000" fill-opacity="0.0" d="m557.2913 160.0l229.66931 1.3543243" fill-rule="evenodd"/><path stroke="#000000" stroke-width="3.0" stroke-linejoin="round" stroke-linecap="butt" stroke-dasharray="12.0,9.0" d="m557.2913 160.0l211.66962 1.2481842" fill-rule="evenodd"/><path fill="#000000" stroke="#000000" stroke-width="3.0" stroke-linecap="butt" d="m768.9317 166.2033l13.643311 -4.874817l-13.584839 -5.0354004z" fill-rule="evenodd"/><path fill="#000000" fill-opacity="0.0" d="m3.7637796 39.43307l188.25197 0l0 37.165356l-188.25197 0z" fill-rule="evenodd"/><path fill="#000000" d="m89.17355 62.51307l-2.09375 0l0 -4.453125l-3.109375 0l0 4.453125l-2.09375 0l0 -10.421875l2.09375 0l0 4.21875l3.109375 0l0 -4.21875l2.09375 0l0 10.421875zm9.02681 -4.265625q0 2.09375 -1.0 3.25q-0.984375 1.15625 -2.734375 1.15625q-1.765625 0 -2.765625 -1.140625q-1.0 -1.15625 -1.015625 -3.21875l0 -1.78125q0 -2.15625 0.984375 -3.359375q1.0 -1.203125 2.78125 -1.203125q1.734375 0 2.734375 1.1875q1.0 1.1875 1.015625 3.328125l0 1.78125zm-2.109375 -1.75q0 -1.40625 -0.40625 -2.09375q-0.390625 -0.6875 -1.234375 -0.6875q-0.84375 0 -1.25 0.65625q-0.390625 0.65625 -0.40625 2.015625l0 1.859375q0 1.359375 0.40625 2.015625q0.40625 0.640625 1.265625 0.640625q0.8125 0 1.203125 -0.625q0.40625 -0.640625 0.421875 -1.96875l0 -1.8125zm8.017151 3.28125q0 -0.640625 -0.328125 -0.953125q-0.3125 -0.328125 -1.171875 -0.6875q-1.578125 -0.59375 -2.265625 -1.390625q-0.6875 -0.796875 -0.6875 -1.890625q0 -1.3125 0.9375 -2.109375q0.9375 -0.796875 2.375 -0.796875q0.953125 0 1.703125 0.40625q0.765625 0.40625 1.15625 1.140625q0.40625 0.734375 0.40625 1.671875l-2.09375 0q0 -0.734375 -0.3125 -1.109375q-0.3125 -0.390625 -0.890625 -0.390625q-0.5625 0 -0.875 0.328125q-0.296875 0.328125 -0.296875 0.875q0 0.4375 0.34375 0.78125q0.34375 0.34375 1.21875 0.71875q1.515625 0.546875 2.203125 1.359375q0.703125 0.796875 0.703125 2.03125q0 1.359375 -0.875 2.125q-0.859375 0.765625 -2.34375 0.765625q-1.015625 0 -1.84375 -0.40625q-0.828125 -0.421875 -1.296875 -1.1875q-0.46875 -0.78125 -0.46875 -1.828125l2.109375 0q0 0.890625 0.34375 1.3125q0.359375 0.40625 1.15625 0.40625q1.09375 0 1.09375 -1.171875zm10.2586975 -5.9375l-2.5625 0l0 8.671875l-2.125 0l0 -8.671875l-2.53125 0l0 -1.75l7.21875 0l0 1.75z" fill-rule="nonzero"/></g></svg>